<svg width="256" height="256" viewBox="0 0 256 256" xmlns="http://www.w3.org/2000/svg">
  <defs>
    <linearGradient id="logoGradient" x1="0%" y1="0%" x2="100%" y2="100%">
      <stop offset="0%" style="stop-color:#3b82f6;stop-opacity:1" />
      <stop offset="100%" style="stop-color:#1e40af;stop-opacity:1" />
    </linearGradient>
    <filter id="shadow" x="-50%" y="-50%" width="200%" height="200%">
      <feDropShadow dx="0" dy="4" stdDeviation="6" flood-opacity="0.15"/>
    </filter>
  </defs>

  <!-- Background -->
  <rect width="256" height="256" fill="#ffffff" rx="64"/>

  <!-- Main Icon Container -->
  <g filter="url(#shadow)">
    <!-- Broom Handle -->
    <rect x="112" y="48" width="32" height="140" rx="16" fill="url(#logoGradient)"/>

    <!-- Bristles Group 1 (Left) -->
    <g opacity="0.9">
      <path d="M 104 170 Q 85 185 75 195" stroke="url(#logoGradient)" stroke-width="6" fill="none" stroke-linecap="round"/>
      <path d="M 104 175 Q 82 195 68 210" stroke="url(#logoGradient)" stroke-width="6" fill="none" stroke-linecap="round"/>
      <path d="M 104 180 Q 80 205 62 225" stroke="url(#logoGradient)" stroke-width="6" fill="none" stroke-linecap="round"/>
    </g>

    <!-- Bristles Group 2 (Right) -->
    <g opacity="0.9">
      <path d="M 152 170 Q 171 185 181 195" stroke="url(#logoGradient)" stroke-width="6" fill="none" stroke-linecap="round"/>
      <path d="M 152 175 Q 174 195 188 210" stroke="url(#logoGradient)" stroke-width="6" fill="none" stroke-linecap="round"/>
      <path d="M 152 180 Q 176 205 194 225" stroke="url(#logoGradient)" stroke-width="6" fill="none" stroke-linecap="round"/>
    </g>

    <!-- Bristles Group 3 (Center) -->
    <g opacity="0.95">
      <path d="M 128 170 Q 128 190 128 210" stroke="url(#logoGradient)" stroke-width="6" fill="none" stroke-linecap="round"/>
      <path d="M 120 175 Q 115 195 113 215" stroke="url(#logoGradient)" stroke-width="6" fill="none" stroke-linecap="round"/>
      <path d="M 136 175 Q 141 195 143 215" stroke="url(#logoGradient)" stroke-width="6" fill="none" stroke-linecap="round"/>
    </g>

    <!-- Checkmark (Success indicator) -->
    <g transform="translate(128, 65)" fill="none" stroke="#10b981" stroke-width="8" stroke-linecap="round" stroke-linejoin="round">
      <circle cx="0" cy="0" r="22" fill="#10b981" opacity="0.1" stroke="none"/>
      <path d="M -8 0 L -2 7 L 10 -5"/>
    </g>

    <!-- Decorative Accent Line -->
    <rect x="80" y="32" width="96" height="2" rx="1" fill="url(#logoGradient)" opacity="0.3"/>
  </g>
</svg>
